<svg width="26" height="26" viewBox="0 0 26 26" fill="none" xmlns="http://www.w3.org/2000/svg">
<path d="M13 1H3.66667C2.95942 1 2.28115 1.28095 1.78105 1.78105C1.28095 2.28115 1 2.95942 1 3.66667V22.3333C1 23.0406 1.28095 23.7189 1.78105 24.219C2.28115 24.719 2.95942 25 3.66667 25H22.3333C23.0406 25 23.7189 24.719 24.219 24.219C24.719 23.7189 25 23.0406 25 22.3333V13M19 1.82843C19.5304 1.29799 20.2499 1 21 1C21.7501 1 22.4696 1.29799 23 1.82843C23.5304 2.35886 23.8284 3.07828 23.8284 3.82843C23.8284 4.57857 23.5304 5.29799 23 5.82843L10.3333 18.4951L5 19.8284L6.33333 14.4951L19 1.82843Z" stroke="white" stroke-width="1.63636" stroke-linecap="round" stroke-linejoin="round"/>
</svg>
