<svg width="50" height="50" viewBox="0 0 50 50" fill="none" xmlns="http://www.w3.org/2000/svg">
<rect width="50" height="50" rx="25" fill="#2196F3"/>
<path d="M15 35C14.3125 35 13.7242 34.7554 13.235 34.2663C12.745 33.7763 12.5 33.1875 12.5 32.5V17.5C12.5 16.8125 12.745 16.2242 13.235 15.735C13.7242 15.245 14.3125 15 15 15H35C35.6875 15 36.2763 15.245 36.7663 15.735C37.2554 16.2242 37.5 16.8125 37.5 17.5V32.5C37.5 33.1875 37.2554 33.7763 36.7663 34.2663C36.2763 34.7554 35.6875 35 35 35H15ZM25 26.0312C25.1042 26.0312 25.2133 26.0154 25.3275 25.9837C25.4425 25.9529 25.5521 25.9062 25.6562 25.8438L34.5 20.3125C34.6667 20.2083 34.7917 20.0783 34.875 19.9225C34.9583 19.7658 35 19.5938 35 19.4062C35 18.9896 34.8229 18.6771 34.4688 18.4688C34.1146 18.2604 33.75 18.2708 33.375 18.5L25 23.75L16.625 18.5C16.25 18.2708 15.8854 18.2654 15.5313 18.4838C15.1771 18.7029 15 19.0104 15 19.4062C15 19.6146 15.0417 19.7967 15.125 19.9525C15.2083 20.1092 15.3333 20.2292 15.5 20.3125L24.3438 25.8438C24.4479 25.9062 24.5575 25.9529 24.6725 25.9837C24.7867 26.0154 24.8958 26.0312 25 26.0312Z" fill="white"/>
</svg>
